<?xml version="1.0" standalone="no"?>
<!DOCTYPE svg PUBLIC "-//W3C//DTD SVG 20010904//EN"
 "http://www.w3.org/TR/2001/REC-SVG-20010904/DTD/svg10.dtd">
<svg version="1.0" xmlns="http://www.w3.org/2000/svg"
 width="500.000000pt" height="500.000000pt" viewBox="0 0 500.000000 500.000000"
 preserveAspectRatio="xMidYMid meet">
<metadata>
Created by potrace 1.11, written by Peter Selinger 2001-2013
</metadata>
<g transform="translate(0.000000,500.000000) scale(0.100000,-0.100000)"
fill="#000000" stroke="none">
<path d="M2338 4995 c-2 -2 -33 -6 -69 -9 -343 -28 -752 -160 -1034 -334 -27
-17 -66 -40 -86 -51 -21 -11 -43 -26 -50 -34 -8 -7 -27 -22 -44 -33 -33 -21
-32 -20 -130 -99 -83 -66 -232 -210 -295 -284 -25 -30 -50 -58 -55 -65 -45
-48 -205 -275 -205 -291 0 -3 -11 -21 -24 -38 -20 -27 -130 -246 -156 -312
-36 -91 -50 -130 -50 -141 0 -8 -4 -22 -10 -32 -15 -25 -56 -185 -74 -282 -27
-146 -32 -184 -42 -285 -6 -64 -6 -334 1 -400 27 -294 82 -518 190 -780 78
-190 251 -470 393 -638 90 -106 272 -278 402 -380 40 -32 174 -119 250 -164
216 -126 496 -235 730 -282 97 -20 104 -21 155 -27 28 -4 53 -8 56 -10 9 -5
225 -17 314 -17 85 0 263 10 305 18 14 2 43 6 65 9 92 13 126 20 250 52 151
40 142 38 178 52 16 7 32 12 38 12 25 0 284 120 392 181 110 63 257 161 319
214 13 11 50 43 83 70 272 228 531 584 664 910 18 44 38 94 46 110 22 51 90
288 101 355 3 14 7 36 9 50 12 58 15 75 20 124 3 28 10 85 14 126 9 74 6 372
-4 481 -4 51 -46 287 -59 334 -3 11 -13 45 -21 75 -9 30 -18 62 -20 70 -11 50
-87 235 -145 355 -56 114 -172 309 -219 368 -6 6 -32 39 -58 72 -26 33 -59 74
-73 90 -32 39 -203 210 -255 255 -43 38 -242 190 -249 190 -2 0 -35 20 -73 45
-72 48 -362 195 -385 195 -7 0 -25 6 -39 14 -29 15 -143 54 -177 61 -12 2 -26
6 -30 9 -5 3 -19 7 -33 10 -13 3 -44 10 -69 17 -43 10 -56 13 -110 23 -92 16
-164 27 -220 32 -55 6 -408 13 -412 9z"/>
</g>
</svg>
